<?xml version="1.0" encoding="UTF-8"?>
<svg width="359px" height="359px" viewBox="0 0 359 359" version="1.1" xmlns="http://www.w3.org/2000/svg" xmlns:xlink="http://www.w3.org/1999/xlink">
    <!-- Generator: Sketch 60 (88103) - https://sketch.com -->
    <title>facebook</title>
    <desc>Created with Sketch.</desc>
    <g id="Page-1" stroke="none" stroke-width="1" fill="none" fill-rule="evenodd">
        <g id="facebook" fill="#445C3C" fill-rule="nonzero">
            <path d="M209,357.019532 C207.339416,357.367188 205.672749,357.687501 204,357.980469 C205.672749,357.687501 207.339416,357.367188 209,357.019532 Z" id="Path"></path>
            <path d="M212,356.232422 C211.333333,356.419922 210.666666,356.591797 210,356.767578 C210.666666,356.591797 211.333333,356.419922 212,356.232422 Z" id="Path"></path>
            <path d="M200,358.128907 C198.341982,358.410157 196.673586,358.660157 195,358.871094 C196.673586,358.660157 198.341982,358.410157 200,358.128907 Z" id="Path"></path>
            <path d="M204,357.275391 C203.003247,357.435548 202,357.583985 201,357.72461 C202,357.583985 203.003247,357.435548 204,357.275391 Z" id="Path"></path>
            <path d="M217,355.216797 C216.33526,355.408203 215.66763,355.59961 215,355.783203 C215.66763,355.59961 216.33526,355.408203 217,355.216797 Z" id="Path"></path>
            <path d="M229,352.197266 C228.333334,352.404296 227.666667,352.59961 227,352.802735 C227.666667,352.59961 228.333334,352.404297 229,352.197266 Z" id="Path"></path>
            <path d="M226,353.191407 C225.335526,353.398438 224.667763,353.609376 224,353.808594 C224.667763,353.609376 225.335526,353.402344 226,353.191407 Z" id="Path"></path>
            <path d="M221,354.216797 C220.337461,354.41211 219.668731,354.595703 219,354.783203 C219.668731,354.595703 220.337461,354.41211 221,354.216797 Z" id="Path"></path>
            <path d="M195,358.347657 C194.000965,358.460938 193.00193,358.562501 192,358.652344 C193.00193,358.562501 194.000965,358.460938 195,358.347657 Z" id="Path"></path>
            <path d="M359,179.5 C359,80.3800432 278.619957,0 179.5,0 C80.3800432,0 0,80.3800432 0,179.5 C0,278.619957 80.3800432,359 179.5,359 C180.554497,359 181.603516,358.978088 182.655273,358.958916 L182.655273,219.225769 L144.09082,219.225769 L144.09082,174.282295 L182.655273,174.282295 L182.655273,141.209442 C182.655273,102.853149 206.070579,81.9768521 240.285576,81.9768521 C256.669991,81.9768521 270.753685,83.1984253 274.859375,83.743477 L274.859375,123.830788 L251.266037,123.830788 C232.652115,123.830788 229.047653,132.677605 229.047653,145.657501 L229.047653,174.282295 L273.555634,174.282295 L267.754532,219.225769 L229.047653,219.225769 L229.047653,352.064972 C304.075783,330.555977 359,261.433029 359,179.5 Z" id="Path"></path>
        </g>
    </g>
</svg>