<?xml version="1.0" encoding="UTF-8"?>
<svg width="360px" height="359px" viewBox="0 0 360 359" version="1.1" xmlns="http://www.w3.org/2000/svg" xmlns:xlink="http://www.w3.org/1999/xlink">
    <!-- Generator: Sketch 60 (88103) - https://sketch.com -->
    <title>instagram</title>
    <desc>Created with Sketch.</desc>
    <g id="Page-1" stroke="none" stroke-width="1" fill="none" fill-rule="evenodd">
        <g id="instagram" fill="#445C3C" fill-rule="nonzero">
            <path d="M215,179.5 C215,198.554209 199.554209,214 180.5,214 C161.445791,214 146,198.554209 146,179.5 C146,160.445791 161.445791,145 180.5,145 C199.554209,145 215,160.445791 215,179.5 Z" id="Path"></path>
            <path d="M259.850526,118.71089 C258.198953,114.235483 255.564105,110.18461 252.140447,106.859553 C248.81539,103.435895 244.767256,100.801047 240.28911,99.1494743 C236.657294,97.7389268 231.201351,96.0599648 221.152229,95.6025639 C210.281429,95.1068183 207.022106,95 179.501369,95 C151.977894,95 148.718571,95.1040796 137.850509,95.5998251 C127.801387,96.0599648 122.342706,97.7389268 118.713629,99.1494743 C114.235483,100.801047 110.18461,103.435895 106.862292,106.859553 C103.438633,110.18461 100.803786,114.232744 99.1494743,118.71089 C97.7389268,122.342706 96.0599648,127.801387 95.6025639,137.850509 C95.1068183,148.718571 95,151.977894 95,179.501369 C95,207.022106 95.1068183,210.281429 95.6025639,221.152229 C96.0599648,231.201351 97.7389268,236.657294 99.1494743,240.289111 C100.803786,244.767256 103.435895,248.81539 106.859553,252.140447 C110.18461,255.564105 114.232744,258.198953 118.710889,259.850526 C122.342706,261.263812 127.801387,262.942774 137.850509,263.400175 C148.718571,263.895921 151.975155,264 179.498631,264 C207.024845,264 210.284168,263.895921 221.149491,263.400175 C231.198613,262.942774 236.657294,261.263812 240.28911,259.850526 C249.278268,256.383045 256.383045,249.278268 259.850526,240.289111 C261.261073,236.657294 262.940035,231.201351 263.400175,221.152229 C263.89592,210.281429 264,207.022106 264,179.501369 C264,151.977894 263.89592,148.718571 263.400175,137.850509 C262.942774,127.801387 261.263812,122.342706 259.850526,118.71089 L259.850526,118.71089 Z M179.501369,232.425652 C150.268804,232.425652 126.571609,208.731196 126.571609,179.498631 C126.571609,150.266065 150.268804,126.571609 179.501369,126.571609 C208.731196,126.571609 232.428391,150.266065 232.428391,179.498631 C232.428391,208.731196 208.731196,232.425652 179.501369,232.425652 Z M234.520931,136.848063 C227.690047,136.848063 222.151937,131.309953 222.151937,124.479069 C222.151937,117.648185 227.690047,112.110076 234.520931,112.110076 C241.351815,112.110076 246.889924,117.648185 246.889924,124.479069 C246.887185,131.309953 241.351815,136.848063 234.520931,136.848063 Z" id="Shape"></path>
            <path d="M180,0 C80.603943,0 0,80.3800432 0,179.5 C0,278.619957 80.603943,359 180,359 C279.396057,359 360,278.619957 360,179.5 C360,80.3800432 279.396057,0 180,0 Z M282.735901,221.99485 C282.236023,232.967094 280.48645,240.45813 277.932129,247.015182 C272.562561,260.860588 261.587219,271.805443 247.703247,277.160095 C241.130676,279.707321 233.616028,281.449295 222.615967,281.950523 C211.593933,282.451752 208.072815,282.572266 180.002746,282.572266 C151.929932,282.572266 148.41156,282.451752 137.38678,281.950523 C126.386719,281.449295 118.87207,279.707321 112.2995,277.160095 C105.400086,274.571785 99.1543577,270.515396 93.9907835,265.270302 C88.7338259,260.12381 84.6661373,253.892692 82.0706175,247.015182 C79.5162966,240.460869 77.7667233,232.967094 77.2668457,221.997589 C76.7587282,211.003434 76.640625,207.492096 76.640625,179.5 C76.640625,151.507904 76.7587282,147.996566 77.2640993,137.00515 C77.7639769,126.032906 79.510803,118.54187 82.0651247,111.984818 C84.6606445,105.107308 88.7310788,98.8761902 93.9907835,93.729698 C99.1516113,88.4846035 105.400086,84.4282149 112.296753,81.8399048 C118.87207,79.2926792 126.383972,77.5507046 137.38678,77.0494768 C148.408813,76.5482483 151.929932,76.4277344 180,76.4277344 C208.070068,76.4277344 211.591187,76.5482483 222.61322,77.0522156 C233.616028,77.5507046 241.12793,79.2926792 247.703247,81.837166 C254.599914,84.4254761 260.848389,88.4846035 266.011963,93.729698 C271.268921,98.878929 275.339355,105.107308 277.932129,111.984818 C280.489197,118.54187 282.236023,126.032906 282.738648,137.00515 C283.241272,147.996566 283.359375,151.507904 283.359375,179.5 C283.359375,207.492096 283.241272,211.003434 282.735901,221.99485 L282.735901,221.99485 Z" id="Shape"></path>
        </g>
    </g>
</svg>