<?xml version="1.0" encoding="UTF-8"?>
<svg width="358px" height="359px" viewBox="0 0 358 359" version="1.1" xmlns="http://www.w3.org/2000/svg" xmlns:xlink="http://www.w3.org/1999/xlink">
    <!-- Generator: Sketch 60 (88103) - https://sketch.com -->
    <title>yelp</title>
    <desc>Created with Sketch.</desc>
    <g id="Page-1" stroke="none" stroke-width="1" fill="none" fill-rule="evenodd">
        <g id="yelp" fill="#445C3C" fill-rule="nonzero">
            <path d="M179,0 C80.1443887,0 0,80.3645831 0,179.5 C0,278.635417 80.1443887,359 179,359 C277.855611,359 358,278.635417 358,179.5 C358,80.3645831 277.855611,0 179,0 Z M69.9006445,229.671857 C67.802087,212.880573 69.0656164,189.210445 71.1568491,179.948061 C73.4641637,169.690394 79.14089,167.130568 88.8462609,171.030905 C108.018946,178.732419 127.136696,186.558803 146.24712,194.407223 C152.282762,196.889923 154.938005,201.186905 154.674312,207.426711 C154.417944,213.346997 151.495345,217.089412 145.225309,219.090997 C125.093074,225.525453 104.968164,231.978271 84.7809923,238.23644 C76.7530026,240.722813 71.6952225,237.983028 69.9006445,229.671857 Z M178.490926,313.32712 C178.403028,321.439969 174.249862,325.766332 166.225535,324.969371 C148.331028,323.195488 131.813586,317.080552 116.999161,306.892665 C110.285974,302.272491 109.747601,296.341187 114.937228,290.064655 C128.667581,273.486384 142.540767,257.025637 156.45424,240.597944 C160.347376,235.999806 165.562639,234.975141 171.16978,237.20443 C176.414343,239.294159 178.835192,242.937412 178.864491,249.140491 C178.919427,259.838875 178.879141,270.533586 178.879141,281.231969 C178.765606,281.231969 178.648409,281.231969 178.523887,281.231969 C178.520225,291.934026 178.615448,302.632409 178.490926,313.32712 Z M178.465289,164.357729 C176.004153,173.28223 167.155785,175.897146 160.138619,169.807918 C157.307581,167.350926 154.886731,164.225514 152.868747,161.037668 C133.47998,130.496041 114.204747,99.8809616 94.9331765,69.2658824 C89.3663223,60.4258517 90.4760307,55.0931867 99.8151611,50.340798 C118.299315,40.931509 137.955437,35.2499437 158.688307,33.9975754 C168.573136,33.4026087 172.048757,36.7300153 172.733627,46.5432941 C175.161801,81.5434987 177.46179,116.551049 179.900951,152.825657 C179.549361,155.881289 179.585985,160.284777 178.465289,164.357729 Z M202.098783,177.333146 C214.734077,160.14889 227.29246,142.898527 240.022977,125.780379 C245.472634,118.449801 251.402066,117.740982 258.148215,124.021187 C270.673637,135.685473 280.031079,149.689228 286.00446,165.745985 C289.242026,174.435437 286.381688,179.514691 277.449084,181.817432 C257.144716,187.054609 236.781749,192.071427 216.437095,197.154353 C215.213852,197.455509 213.928348,197.528962 212.910199,197.672194 C207.379969,197.517944 203.604031,194.880992 201.179519,190.356307 C198.798957,185.901402 199.029688,181.497913 202.098783,177.333146 Z M286.209555,262.73291 C279.298598,276.398783 269.941156,288.187939 258.466844,298.272992 C256.697903,299.830189 254.643294,301.174373 252.5191,302.191693 C247.519918,304.582578 242.87599,303.590967 239.957054,298.959775 C227.896757,279.836368 215.960982,260.628491 204.182691,241.332471 C201.16487,236.359724 202.695754,231.427376 206.22265,227.185483 C209.599386,223.130895 213.983284,221.603079 219.055714,223.288818 C239.869156,230.189698 260.63865,237.193412 281.426455,244.171417 C286.172931,245.761668 288.872123,248.868716 289.17244,254.256471 C288.205565,257.088072 287.549995,260.081269 286.209555,262.73291 Z" id="Shape"></path>
        </g>
    </g>
</svg>